<?xml version="1.0" encoding="utf-8"?>
<!-- Generator: Adobe Illustrator 27.0.0, SVG Export Plug-In . SVG Version: 6.00 Build 0)  -->
<svg version="1.1" id="Layer_1" xmlns="http://www.w3.org/2000/svg" xmlns:xlink="http://www.w3.org/1999/xlink" x="0px" y="0px"
	 viewBox="0 0 243.1 213.3" style="enable-background:new 0 0 243.1 213.3;" xml:space="preserve">
<style type="text/css">
	.st0{fill:#017F3A;}
	.st1{enable-background:new    ;}
	.st2{fill:#F8F8F8;}
</style>
<circle class="st0" cx="120.3" cy="84.9" r="80.2"/>
<g class="st1">
	<path class="st2" d="M105.2,45.5v74.1H82V64.2l-16.4,3.4l-2.5-13.6l23.4-8.5H105.2z"/>
	<path class="st2" d="M176.8,102.3v17.3h-58.2v-14.4c4.5-3.6,8.8-7,12.9-10.3c4.1-3.3,8.6-7.3,13.6-11.8c2.5-2.2,4.3-4.5,5.4-7
		c1.1-2.5,1.7-4.9,1.7-7.2c0-2.3-0.6-4.2-1.7-5.5c-1-1-6.1-1.4-15.4-1.4l-8.9,0.1c-1.1,0.1-2.6,0.1-4.2,0.1
		c-0.3-1.2-0.6-3.6-0.9-7.1c-0.3-3.6-0.5-6.2-0.5-7.9c10-1.7,18.3-2.6,24.9-2.6c9,0,16.2,1.7,21.5,5c5.3,3.3,8,9.1,8,17.2
		c0,3.9-1,7.9-3,12c-2,4.1-6,8.4-11.9,12.9c-4,3-9.2,6.6-15.6,10.8L176.8,102.3z"/>
</g>
<path d="M61,147.4c2,8.3,3,15.8,3,22.5c0,9.7-2.1,17.5-6.3,23.4c-9.2,2.8-17.4,4.1-24.5,4.1c-9.3,0-16.2-1.9-20.6-5.8
	c-4.5-3.8-6.7-9.4-6.7-16.6c0-7,2.1-15.7,6.2-26.1l13.6,4.4c-2.4,6.8-3.6,12-3.6,15.7c0,3.4,0.9,5.9,2.8,7.6
	c1.9,1.6,4.8,2.5,8.8,2.5c1.7,0,3.8-0.2,6.3-0.5c2.6-0.3,5.2-0.8,7.8-1.5c-0.2-4.7-0.5-8.9-1-12.5c-0.4-3.7-1-8.3-1.7-13.9L61,147.4
	z M36.9,143.9c-1.4-0.5-3.2-1.6-5.4-3.1c-2.2-1.6-3.8-2.9-4.6-4.1c0.2-0.9,0.7-2,1.5-3.5c0.9-1.5,1.8-2.9,2.9-4.1
	c1-1.2,2-1.9,2.8-2.1c0.7-0.1,1.8,0.2,3.3,1c1.5,0.8,2.9,1.8,4.2,3c1.3,1.1,2,2,2.2,2.7c0.3,1-0.5,2.7-2.3,5.2
	C39.5,141.5,38.1,143.1,36.9,143.9z M91,161.5c1.1,0,1.7,0.8,2.1,2.3c0.4,1.5,0.6,3.8,0.6,6.9c0,3.2-0.2,5.5-0.6,7
	c-0.4,1.4-1.1,2.2-2.1,2.2c-3.6,0-7.1-0.2-10.6-0.7c-3.4-0.5-6.2-1.2-8.5-2.2c-0.6-2.4-1.1-13.1-1.5-32.1l-0.6-20.1l15.9-0.9
	c0.6,9.8,0.9,18.8,0.9,27.1c0,2.5-0.1,5.9-0.2,10.1C88.1,161.4,89.6,161.5,91,161.5z M164.4,161.5c1.1,0,1.7,0.8,2.1,2.3
	c0.4,1.5,0.6,3.8,0.6,6.9c0,3.2-0.2,5.5-0.6,7c-0.4,1.4-1.1,2.2-2.1,2.2c-3.8,0-7.1-1.1-10.1-3.5c-3.6,1.2-7.8,2.2-12.6,3
	c-4.7,0.7-9.4,1.1-13.8,1.1c-5.2,0-9.7-0.6-13.6-1.8c-3.8-1.2-6.5-3.1-8.1-5.7h-0.9c-1.6,2.4-3.7,4.2-6.4,5.3
	c-2.6,1.1-5.2,1.6-7.8,1.6c-1,0-1.7-0.7-2.1-2.2c-0.4-1.5-0.6-3.9-0.6-7c0-3.1,0.2-5.4,0.6-6.9c0.3-1.5,1-2.3,2.1-2.3
	c3.2,0,5.8-0.6,8-1.8c2.2-1.2,3.3-3.2,3.1-6.1l8.3-1.3c0.3,2.2,0.5,3.9,0.8,5c0.3,1.1,0.9,2,1.6,2.6c5.3-6.6,10.5-11.5,15.7-14.6
	c5.2-3.2,10-4.7,14.5-4.7c3.4,0,6.4,0.9,9.1,2.7c2.6,1.7,4.7,4.1,6.2,7.3s2.3,6.8,2.3,11L164.4,161.5L164.4,161.5z M124.9,162.7
	c2.4,0.2,5.3,0.3,8.6,0.3c3.9,0,7.4-0.2,10.3-0.5c3-0.3,4.6-0.9,5-1.6c-0.4-1.1-1.3-1.9-2.7-2.5c-1.4-0.7-3-1-4.8-1
	c-2.5,0-5.2,0.5-8.1,1.4C130.3,159.7,127.5,161,124.9,162.7z M141.3,133.8c-1.4-0.5-3.2-1.6-5.4-3.1c-2.2-1.6-3.8-2.9-4.6-4.1
	c0.2-0.9,0.7-2,1.5-3.5c0.9-1.5,1.8-2.9,2.9-4.1c1.1-1.2,2-1.9,2.8-2.1c0.7-0.1,1.8,0.2,3.3,1c1.5,0.8,2.9,1.8,4.1,3
	c1.3,1.1,2,2,2.2,2.7c0.3,1-0.5,2.7-2.3,5.2C143.9,131.4,142.5,133,141.3,133.8z M196.2,142.6c2.9,0,5.5,0.9,7.7,2.6
	c2.2,1.6,3.9,4,5.1,7c1.2,3,1.9,6.4,1.9,10.2c0,5.2-1.1,9.6-3.4,13c-2.2,3.4-5.4,5.1-9.4,5.1c-2.6,0-5.4-0.7-8.3-2.2
	c-2.8-1.4-5.5-3.4-8.1-5.7c-2.2,2.4-4.7,4.2-7.7,5.4c-2.9,1.2-6.1,1.9-9.7,1.9c-1,0-1.7-0.7-2.1-2.2c-0.4-1.5-0.6-3.9-0.6-7
	c0-3.1,0.2-5.4,0.6-6.9c0.3-1.5,1-2.3,2.1-2.3c3,0,5.5-0.5,7.7-1.4c2.2-1,4.1-2.2,5.5-3.6c1.5-1.4,3.3-3.2,5.2-5.5
	c2.4-2.8,4.5-4.9,6.3-6.3C191.1,143.3,193.4,142.6,196.2,142.6z M197.4,163.5c1.2,0,2.3-0.1,3.4-0.3c1.1-0.3,1.7-0.6,2-0.9
	c-0.1-0.9-0.7-1.7-2-2.4c-1.2-0.7-2.8-1-4.9-1c-3,0-5.6,0.7-7.9,2.1c1.2,0.9,2.6,1.5,4.4,1.9C194,163.3,195.7,163.5,197.4,163.5z
	 M220.4,205.2c-2.3-0.9-5-2.3-8.1-4.4c-3.2-2-5.4-3.9-6.8-5.6c3.2-4.7,6.2-10.2,9.3-16.7c3.2-6.6,5.8-13.2,7.8-19.9l13.8,4.6
	c-1.1,6.5-3.2,13.7-6.1,21.4c-1.8,4.8-3.8,9.1-5.7,12.8C222.6,201.2,221.2,203.8,220.4,205.2z"/>
</svg>
